<svg id="Layer_1" data-name="Layer 1" xmlns="http://www.w3.org/2000/svg" viewBox="0 0 202.78 202.78"><defs><style>.cls-1{fill:none;stroke:#69c4ee;stroke-miterlimit:10;stroke-width:3px;}.cls-2{fill:#69c4ee;}</style></defs><title>501(C)3</title><circle class="cls-1" cx="101.39" cy="101.39" r="99.89"/><circle class="cls-1" cx="101.39" cy="101.39" r="88.74"/><path class="cls-2" d="M65.9,87.16a3.76,3.76,0,0,1,3.48-1.94c3,0,4.34,2.21,4.34,5.55v4.58c0,3.58-1.7,5.91-5.28,5.91s-5.25-2.34-5.25-5.91V93.78h2.44v1.74c0,2.1.87,3.38,2.74,3.38s2.74-1.27,2.74-3.37V91c0-2.1-.87-3.37-2.74-3.37a2.52,2.52,0,0,0-2.64,2.51v0.53H63.29l0.64-13h9.22V80H66.27Z"/><path class="cls-2" d="M76,83.28c0-3.58,1.77-5.88,5.35-5.88s5.38,2.31,5.38,5.88V95.35c0,3.58-1.77,5.91-5.38,5.91S76,98.92,76,95.35V83.28Zm2.57,12.23c0,2.1.9,3.38,2.77,3.38s2.77-1.27,2.77-3.37V83.15c0-2.14-.87-3.41-2.77-3.41S78.59,81,78.59,83.15V95.51Z"/><path class="cls-2" d="M94,81.88a7,7,0,0,1-3.24,1V80.74c2.54-.1,3.41-1.47,4-3.11h1.8V101H94V81.88Z"/><path class="cls-2" d="M105.66,79.77c-1.8,0-2.41,1-2.41,3v13.1c0,2,.57,3,2.41,3h0.77V101h-0.94c-3.58,0-4.81-1.64-4.81-5.15V82.78c0-3.51,1.24-5.15,4.81-5.15h0.94v2.14h-0.77Z"/><path class="cls-2" d="M118.89,83.28v2.1h-2.47V83.15c0-2.11-.84-3.37-2.74-3.37s-2.74,1.27-2.74,3.38V95.51c0,2.1.87,3.38,2.74,3.38s2.74-1.27,2.74-3.37v-3h2.47v2.91c0,3.54-1.67,5.88-5.28,5.88s-5.25-2.34-5.25-5.88V83.28c0-3.54,1.67-5.88,5.25-5.88S118.89,79.74,118.89,83.28Z"/><path class="cls-2" d="M121.66,77.64c3.58,0,4.81,1.64,4.81,5.15v13.1c0,3.51-1.24,5.15-4.81,5.15h-0.94V98.89h0.77c1.84,0,2.41-1,2.41-3V82.78c0-2-.6-3-2.41-3h-0.77V77.64h0.94Z"/><path class="cls-2" d="M139.7,83.28v0.6c0,2.41-1,4.11-2.84,4.81,2,0.73,2.84,2.51,2.84,4.85v1.8c0,3.58-1.67,5.91-5.28,5.91s-5.25-2.34-5.25-5.91v-1.6h2.44v1.77c0,2.1.87,3.38,2.74,3.38s2.74-1.24,2.74-3.61v-1.8c0-2.31-1-3.41-2.94-3.48h-1.4V87.66h1.54c1.74-.07,2.81-1.17,2.81-3.21V83.38c0-2.41-.84-3.64-2.74-3.64s-2.74,1.3-2.74,3.41v1.2h-2.44V83.28c0-3.58,1.67-5.88,5.25-5.88S139.7,79.71,139.7,83.28Z"/><path class="cls-2" d="M69.57,109.69v1.82H67.44v-1.93c0-1.82-.72-2.91-2.36-2.91s-2.36,1.1-2.36,2.91v10.67c0,1.82.75,2.91,2.36,2.91s2.36-1.1,2.36-2.91v-2.62h2.13v2.51c0,3.06-1.44,5.07-4.55,5.07s-4.53-2-4.53-5.07V109.69c0-3.06,1.44-5.07,4.53-5.07S69.57,106.63,69.57,109.69Z"/><path class="cls-2" d="M78.79,113.75v2H73.87v7.18h6.05v2h-8.3V104.82h8.3v2H73.87v6.89h4.93Z"/><path class="cls-2" d="M86.49,104.82c3.17,0,4.5,1.61,4.5,4.61v1.64c0,2.22-.78,3.6-2.51,4.15,1.84,0.55,2.54,2,2.54,4.21v3.14a5.06,5.06,0,0,0,.4,2.42H89.14a5.29,5.29,0,0,1-.37-2.45v-3.17c0-2.28-1.07-3-2.94-3H84.24V125H82V104.82h4.5Zm-0.58,9.51c1.79,0,2.85-.58,2.85-2.77v-1.93c0-1.82-.66-2.77-2.33-2.77H84.24v7.47h1.67Z"/><path class="cls-2" d="M96.26,125V106.86H92.54v-2h9.66v2H98.48V125H96.26Z"/><path class="cls-2" d="M106,104.82V125h-2.25V104.82H106Z"/><path class="cls-2" d="M115.17,114.21v2h-4.64V125h-2.25V104.82h8v2h-5.76v7.35h4.64Z"/><path class="cls-2" d="M120.33,104.82V125h-2.25V104.82h2.25Z"/><path class="cls-2" d="M129.81,113.75v2h-4.93v7.18h6.05v2h-8.3V104.82h8.3v2h-6.05v6.89h4.93Z"/><path class="cls-2" d="M137.73,104.82c3.14,0,4.58,1.9,4.58,5V120c0,3.08-1.44,5-4.58,5H133V104.82h4.73Zm0,18.13c1.61,0,2.39-1,2.39-2.85V109.71c0-1.84-.78-2.85-2.42-2.85h-2.42v16.08h2.45Z"/><circle class="cls-1" cx="101.39" cy="101.39" r="57.11"/><path class="cls-2" d="M59.8,165.89L61,164.15l-1-.65c-2.47-1.65-3.2-4.05-1.92-6,1.51-2.27,4.19-2.6,6.8-.86a9.19,9.19,0,0,1,3.27,4.12l-2.48,1.35A4.56,4.56,0,0,0,63.79,159c-1.07-.71-2-0.6-2.65.33s-0.28,1.75.79,2.46c0.56,0.37,2.29,1.48,3,1.88l-4.06,6.1L53.77,165l1.45-2.17Z"/><path class="cls-2" d="M46,149.11c3-3,6.11-3.24,8.72-.66s2.44,5.73-.55,8.75-6.1,3.23-8.73.62S43,152.12,46,149.11Zm5.76,5.7c2.09-2.11,2.45-3.47,1.26-4.65s-2.53-.79-4.62,1.32S46,155,47.15,156.11,49.68,156.92,51.77,154.81Z"/><path class="cls-2" d="M48.18,141.09l-8.41,6,1.39,1.94L39,150.61,35.69,146l10.57-7.58Z"/><path class="cls-2" d="M26.9,131.07a15.48,15.48,0,0,0,14.67-6.52l1.17,2.63a14,14,0,0,1-6.37,5.43,14,14,0,0,1-8.3,1.09Z"/><path class="cls-2" d="M25.12,115.15l2.67,1.27A4.44,4.44,0,0,0,27,120a3.8,3.8,0,0,0,7.33-1.93,4.86,4.86,0,0,0-2.3-2.77l1.48-2.38a7.84,7.84,0,0,1,3.66,4.58,6.62,6.62,0,1,1-12.83,3.26A7.53,7.53,0,0,1,25.12,115.15Z"/><path class="cls-2" d="M21.61,108.77a14,14,0,0,1,7.76-3.14,14,14,0,0,1,8.22,1.55L37.88,110a15.6,15.6,0,0,0-16,1.58Z"/><path class="cls-2" d="M27.53,96.8a3.48,3.48,0,0,1,3.67-3.07c2.48,0.1,4.14,2.12,4,5.14a8.17,8.17,0,0,1-1.78,4.77L31,102.2A4.42,4.42,0,0,0,32.71,99c0.05-1.3-.55-2-1.6-2.07s-1.66.65-1.72,2L29.3,101l-1.76-.08-2.88-3-0.2,4.72-2.52-.11,0.36-8.56L24.18,94l3.23,3.38Z"/><path class="cls-2" d="M35.26,82.35l2,1.66-1.08,3.22L25.62,77.79l1.08-3.22,14-1.06-1.12,3.34L37.06,77Zm-6-5,4,3.32,1.19-3.55Z"/><path class="cls-2" d="M38,56.85l1,2.8a4.44,4.44,0,0,0-3.11,2,3.8,3.8,0,0,0,6.54,3.85,4.87,4.87,0,0,0,.35-3.58l2.74-.63a7.84,7.84,0,0,1-.68,5.82,6.63,6.63,0,1,1-11.35-6.82A7.54,7.54,0,0,1,38,56.85Z"/><path class="cls-2" d="M48.15,45.08L48.55,48a4.44,4.44,0,0,0-3.44,1.29,3.8,3.8,0,0,0,5.63,5.07,4.86,4.86,0,0,0,1.05-3.44l2.81-.07a7.84,7.84,0,0,1-1.82,5.57A6.62,6.62,0,1,1,43,47.5,7.53,7.53,0,0,1,48.15,45.08Z"/><path class="cls-2" d="M60.61,44.48l-0.08.05-2,1.47,2.15,3L58,50.9,50.34,40.41,55,37c2.77-2,5.32-1.86,7,.48a4.33,4.33,0,0,1,.55,4.76l4.73,1.86-3,2.21Zm-1.6-2a2,2,0,0,0,.59-3c-0.8-1.09-1.88-1.16-3-.32l-2,1.48L57,43.91Z"/><path class="cls-2" d="M68.44,32.06l1.05,2.35,5.65-2.53,1.06,2.37-5.65,2.53,1.07,2.38,6.44-2.89,1.06,2.37-9.46,4.24L64.36,31l9.27-4.16,1.06,2.37Z"/><path class="cls-2" d="M84.61,23.85c4-.85,7.3,1.14,8.1,4.91s-1.44,6.94-5.52,7.81l-5.33,1.14L79.15,25Zm-0.07,10.6,2.3-.49c2-.42,3.07-2.25,2.59-4.48a3.6,3.6,0,0,0-4.34-3l-2.16.46Z"/><path class="cls-2" d="M96.72,35.18l-0.61-13,3.3-.15L100,35Z"/><path class="cls-2" d="M110.54,25.22l-1,10.27-3.28-.32,1-10.27-3.86-.38,0.26-2.66,11,1.07-0.26,2.66Z"/><path class="cls-2" d="M121.71,27.35L121,29.82l5.93,1.77-0.74,2.49-5.93-1.77-0.75,2.5,6.77,2-0.74,2.49-9.93-3,3.71-12.44,9.74,2.9-0.74,2.49Z"/><path class="cls-2" d="M139.32,31.69c3.58,2,4.78,5.62,2.93,9S136.62,45,133,43l-4.78-2.62L134.42,29Zm-7,8,2.06,1.13c1.77,1,3.79.3,4.89-1.7A3.6,3.6,0,0,0,138,34l-1.93-1.06Z"/><path class="cls-2" d="M151.59,57.85L153.25,48l-5.78,5.52-2.14-2.24,9.39-9,2,2.11-1.66,9.86,5.8-5.53L163,51l-9.39,9Z"/><path class="cls-2" d="M167.87,70.67a7,7,0,0,1-7.09-12.11c3.26-1.91,7.2-.73,9.22,2.72S171.12,68.77,167.87,70.67Zm-5.4-9.19A3.77,3.77,0,0,0,161,66.6,3.86,3.86,0,1,0,162.48,61.48Z"/><path class="cls-2" d="M165.77,84.91l5.9-8L164,79.2l-0.9-3,12.41-3.79,0.85,2.78-5.91,8.06L178.13,81l0.9,2.94-12.41,3.79Z"/><path class="cls-2" d="M171.61,90.3l2-.25,0.6,4.86-2,.25Z"/><path class="cls-2" d="M180.68,105c-0.12,3.32-1.82,5.16-4.71,5.06s-4.73-2.08-4.61-5.4l0.09-2.35-3.65-.13,0.12-3.3,13,0.47Zm-6.64-2.6L174,104.62a2,2,0,0,0,2,2.35c1.35,0,2.07-.76,2.12-2.2l0.08-2.18Z"/><path class="cls-2" d="M169.23,118.86l0-.09,0.61-2.43-3.54-.89,0.8-3.2,12.59,3.15L178.3,121c-0.83,3.33-2.89,4.84-5.7,4.14a4.33,4.33,0,0,1-3.47-3.3l-4.82,1.6,0.91-3.63Zm2.54,0.54a2,2,0,0,0,1.48,2.7c1.31,0.33,2.18-.31,2.53-1.7l0.61-2.43-4-1Z"/><path class="cls-2" d="M163.24,140.59a7,7,0,0,1,6.36-12.52c3.37,1.71,4.51,5.66,2.7,9.23S166.6,142.29,163.24,140.59Zm4.81-9.52a3.78,3.78,0,0,0-5.12,1.52A3.86,3.86,0,1,0,168.05,131.07Z"/><path class="cls-2" d="M161.87,148.67l-2.34-1.88-3.64,4.54-2-1.62,3.65-4.54-3.73-3,2.07-2.57L166,147.72l-6,7.5-2-1.63Z"/><path class="cls-2" d="M147.91,148.78l8.86,9.48-2.41,2.25L145.5,151Z"/><path class="cls-2" d="M143.86,165.31l-5.9-8.47,2.71-1.89,5.9,8.47,3.18-2.21,1.53,2.19-9.1,6.34-1.53-2.19Z"/></svg>