<svg id="Layer_1" data-name="Layer 1" xmlns="http://www.w3.org/2000/svg" viewBox="0 0 202.78 202.78"><defs><style>.cls-1{fill:none;stroke:#69c4ee;stroke-miterlimit:10;stroke-width:3px;}.cls-2{font-size:33.41px;}.cls-2,.cls-3,.cls-4{fill:#69c4ee;}.cls-2,.cls-3{font-family:Bebas Neue;}.cls-3{font-size:28.82px;}.cls-4{font-size:18.54px;font-family:Montserrat;font-weight:700;}</style></defs><title>501(C)3</title><circle class="cls-1" cx="101.39" cy="101.39" r="99.89"/><circle class="cls-1" cx="101.39" cy="101.39" r="88.74"/><text class="cls-2" transform="translate(61.95 101.03)">501(c)3</text><text class="cls-3" transform="translate(59.51 124.99)">Certified</text><circle class="cls-1" cx="101.39" cy="101.39" r="57.11"/><text class="cls-4" transform="matrix(-0.9, -0.44, 0.44, -0.9, 73.99, 161.88)"> </text><text class="cls-4" transform="translate(69.17 159.67) rotate(-146.29)">5</text><text class="cls-4" transform="translate(59.29 153.1) rotate(-135.29)">0</text><text class="cls-4" transform="translate(49.64 143.13) rotate(-125.64)">1</text><text class="cls-4" transform="translate(44.68 135.97) rotate(-119.53)"> </text><text class="cls-4" transform="matrix(-0.41, -0.91, 0.91, -0.41, 42.04, 131.3)">(</text><text class="cls-4" transform="matrix(-0.25, -0.97, 0.97, -0.25, 38.86, 124.56)">C</text><text class="cls-4" transform="translate(35.67 111.21) rotate(-95.68)">)</text><text class="cls-4" transform="translate(34.86 103.66) rotate(-87.56)">3</text><text class="cls-4" transform="matrix(0.17, -0.99, 0.99, 0.17, 35.59, 92.35)"> </text><text class="cls-4" transform="translate(36.16 87.13) rotate(-71.48)">A</text><text class="cls-4" transform="matrix(0.51, -0.86, 0.86, 0.51, 40.94, 73.24)">C</text><text class="cls-4" transform="matrix(0.67, -0.74, 0.74, 0.67, 47.8, 61.73)">C</text><text class="cls-4" transform="matrix(0.81, -0.59, 0.59, 0.81, 56.93, 51.66)">R</text><text class="cls-4" transform="translate(68.48 43.4) rotate(-24.17)">E</text><text class="cls-4" transform="translate(80.57 37.97) rotate(-12.01)">D</text><text class="cls-4" transform="matrix(1, -0.05, 0.05, 1, 95.41, 35.23)">I</text><text class="cls-4" transform="translate(102.25 34.78) rotate(5.58)">T</text><text class="cls-4" transform="matrix(0.96, 0.29, -0.29, 0.96, 114.32, 35.98)">E</text><text class="cls-4" transform="translate(127.03 39.76) rotate(28.75)">D</text><text class="cls-4" transform="matrix(0.79, 0.61, -0.61, 0.79, 140.08, 47.43)"> </text><text class="cls-4" transform="translate(144.42 50.34) rotate(46.35)">N</text><text class="cls-4" transform="matrix(0.5, 0.86, -0.86, 0.5, 154.93, 61.45)">O</text><text class="cls-4" transform="matrix(0.29, 0.96, -0.96, 0.29, 162.73, 74.99)">N</text><text class="cls-4" transform="translate(166.83 89.85) rotate(82.96)">-</text><text class="cls-4" transform="translate(167.95 97.6) rotate(92.11)">P</text><text class="cls-4" transform="translate(167.42 110.98) rotate(104.06)">R</text><text class="cls-4" transform="translate(163.98 124.71) rotate(116.9)">O</text><text class="cls-4" transform="translate(156.64 138.57) rotate(128.75)">F</text><text class="cls-4" transform="matrix(-0.73, 0.68, -0.68, -0.73, 148.85, 147.88)">I</text><text class="cls-4" transform="matrix(-0.82, 0.57, -0.57, -0.82, 143.93, 152.65)">T</text></svg>