<svg id="Capa_1" data-name="Capa 1" xmlns="http://www.w3.org/2000/svg" viewBox="0 0 424.84 240.44"><defs><style>.cls-1{fill:#69C4EE;}.cls-2{fill:#fff;}</style></defs><title>check</title><path class="cls-1" d="M420.5,138.52c3.95-23.61-13.8-43.5-14.57-44.35A6,6,0,0,0,395.7,99.8c1.53,5.53-2.9,18.87-30.61,29.76-28.43,11.17-43.35,22-51.14,29.86l-1.18-4.29a17.11,17.11,0,0,0-21.07-11.94L124.14,189.53a17.13,17.13,0,0,0-11.94,21.07l1.19,4.29c-10.71-2.73-29.08-4.37-59.21.65-29.36,4.9-40-4.27-41.55-9.8a6,6,0,0,0-11.67.42c-0.23,1.13-5.23,27.31,10.28,45.53,1.11,6.41,5.84,26.61,22.65,37.16A57.78,57.78,0,0,0,69.35,312a60.56,60.56,0,0,0,12.06,1.19c16.58,0,34.61-6.5,53.8-19.33l7.25,26.2A17.11,17.11,0,0,0,163.53,332L331.1,285.68A17.12,17.12,0,0,0,343,264.61l-7.24-26.2c2.73,0.14,5.42.24,8,.24,24.9,0,44.31-6.2,57.8-18.51A57.78,57.78,0,0,0,420.15,182C429.15,164.35,422.84,144.58,420.5,138.52ZM71.94,300.3a44.31,44.31,0,0,1-13.52-5.08c9.52-.22,20.13-2.91,31.75-8.1a6,6,0,0,0-4.89-11c-18.41,8.22-33.2,9.28-44,3.16-6.75-3.83-11.1-10.06-13.87-15.92q11.13,4.69,26.36,4.7a113.24,113.24,0,0,0,11.51-.61,6,6,0,0,0-1.22-11.94C44,257.62,29.49,254,21,244.68c-5.93-6.49-8.12-14.9-8.77-22,8.89,5.35,23.13,8.13,43.88,4.68,40.49-6.75,56.78-.65,61.14,1.62l14.56,52.68C109.43,297.45,89.29,303.73,71.94,300.3Zm321.6-89c-13.11,12-33.69,16.94-61.13,14.9l-14.56-52.64c2.58-4.19,13.44-17.79,51.62-32.8,19.58-7.7,30.37-17.4,35.25-26.56,3.07,6.41,5.52,14.74,3.77,23.36-2.5,12.31-13.05,22.9-31.36,31.46a6,6,0,1,0,5.09,10.87c13.75-6.43,23.91-14.11,30.39-22.95,0.63,6.45.09,14-3.72,20.77-6.09,10.78-19.33,17.46-39.34,19.87a6,6,0,0,0,.71,12,6.12,6.12,0,0,0,.73,0c12.68-1.53,23.18-4.69,31.48-9.43A44.7,44.7,0,0,1,393.54,211.27Z" transform="translate(0 -92.2)"/><path id="path6" class="cls-2" d="M232.59,185.77c3.39-4.61,6.69-9.3,10.14-13.86A14.36,14.36,0,0,1,248.55,185a13.89,13.89,0,0,1-2.54,6.64c-4.43,6.17-9,12.28-13.32,18.51a2,2,0,0,0,1.78,2.88c1.17-.06,1.69-1.27,2.33-2.07,5.09-7.24,10.44-14.3,15.5-21.56q3.38-4.61,6.72-9.24a14.27,14.27,0,0,1,3.28,20L247.43,220.7a1.93,1.93,0,0,0,0,2.66,1.88,1.88,0,0,0,3-.28c7.21-9.94,14.49-19.84,21.62-29.83A14.25,14.25,0,0,1,275,213.73q-12.4,17.07-24.8,34.13a14.54,14.54,0,0,1-11,6.61,14.33,14.33,0,0,1-9.7-2.66c-9.8-7.05-19.52-14.21-29.33-21.25,0.63-1.06,1.4-2,2.12-3Q217.43,206.65,232.59,185.77Z" transform="translate(0 -92.2)"/><path id="path8" class="cls-2" d="M164.57,226.58a19.34,19.34,0,0,1,22.53-.76q21.79,15.78,43.56,31.61A14.37,14.37,0,0,0,242,259.56a14.57,14.57,0,0,0,8.86-6.05c8.7-12,17.47-24,26.11-36a14.5,14.5,0,0,1,5.93,10.44,14.23,14.23,0,0,1-3,10q-14.89,20.47-29.75,41a19.16,19.16,0,0,1-26.87,3.9l-61.23-44.46c-1.53-1.08-3-2.26-4.58-3.23C159.7,232.13,161.56,228.82,164.57,226.58Z" transform="translate(0 -92.2)"/></svg>