<?xml version="1.0" encoding="UTF-8" standalone="no"?>
<svg
   xmlns:dc="http://purl.org/dc/elements/1.1/"
   xmlns:cc="http://creativecommons.org/ns#"
   xmlns:rdf="http://www.w3.org/1999/02/22-rdf-syntax-ns#"
   xmlns:svg="http://www.w3.org/2000/svg"
   xmlns="http://www.w3.org/2000/svg"
   id="svg2"
   version="1.1"
   viewBox="0 0 360 318">
  <defs
     id="defs12" />
  <path
     id="path6"
     d=" M 243.24 33.19 C 255.75 22.64 268.05 11.82 280.71 1.45 C 290.01 12.41 293.26 28.30 288.11 41.85 C 285.84 48.32 281.79 54.12 276.60 58.61 C 260.14 72.80 243.44 86.73 227.19 101.15 C 223.96 104.09 226.24 109.56 230.21 110.35 C 233.51 110.98 235.75 107.95 238.08 106.17 C 257.08 89.47 276.66 73.41 295.60 56.63 C 303.92 49.60 312.20 42.53 320.47 35.44 C 329.00 44.89 332.44 58.61 329.54 70.98 C 327.40 79.44 323.22 87.81 316.19 93.24 C 297.83 108.89 279.47 124.55 261.12 140.21 C 258.92 141.92 257.70 145.17 259.47 147.63 C 261.15 150.61 265.48 151.42 267.90 148.84 C 294.60 126.04 321.45 103.41 347.97 80.41 C 355.56 89.22 359.42 101.31 357.60 112.86 C 356.38 123.27 350.47 132.82 342.33 139.28 C 311.74 165.38 281.18 191.51 250.53 217.54 C 241.41 226.32 228.09 230.61 215.58 228.56 C 205.85 227.25 196.78 222.07 190.39 214.66 C 167.88 188.50 145.64 162.09 123.10 135.95 C 125.55 133.41 128.35 131.25 131.02 128.95 C 168.43 97.03 205.87 65.16 243.24 33.19 Z"
     fill="#06e3e5" />
  <path
     id="path8"
     d=" M 26.88 101.06 C 47.83 91.26 74.60 96.77 90.00 114.02 C 123.34 152.99 156.55 192.09 189.90 231.06 C 197.49 239.41 208.61 244.60 219.94 244.56 C 230.43 244.84 240.87 240.70 248.62 233.67 C 280.83 206.12 313.22 178.78 345.30 151.08 C 352.76 160.16 356.88 172.35 354.78 184.07 C 353.29 194.13 347.82 203.49 339.84 209.78 C 303.11 241.06 266.43 272.40 229.72 303.71 C 220.07 311.83 207.52 316.11 194.97 316.42 C 178.82 316.31 162.74 309.10 152.43 296.56 C 105.64 241.69 58.82 186.85 12.02 131.99 C 8.49 127.97 5.25 123.70 1.45 119.93 C 9.60 113.24 17.01 105.27 26.88 101.06 Z"
     fill="#00aef0" />
</svg>